<svg xmlns="http://www.w3.org/2000/svg" xmlns:xlink="http://www.w3.org/1999/xlink" width="350" zoomAndPan="magnify" viewBox="0 0 262.5 37.5" height="50" preserveAspectRatio="xMidYMid meet" version="1.0"><defs><g/><clipPath id="e59a1b1941"><path d="M 5.179688 1.101562 L 37 1.101562 L 37 32.929688 L 5.179688 32.929688 Z M 5.179688 1.101562 " clip-rule="nonzero"/></clipPath></defs><g fill="#333333" fill-opacity="1"><g transform="translate(47.906779, 29.49353)"><g><path d="M 2.40625 0 L 2.40625 -26.0625 L 9.984375 -26.0625 C 11.171875 -26.0625 12.265625 -25.9375 13.265625 -25.6875 C 14.265625 -25.4375 15.132812 -25.039062 15.875 -24.5 C 16.613281 -23.957031 17.1875 -23.265625 17.59375 -22.421875 C 18 -21.578125 18.203125 -20.550781 18.203125 -19.34375 C 18.203125 -18.289062 18.015625 -17.363281 17.640625 -16.5625 C 17.273438 -15.757812 16.695312 -15.109375 15.90625 -14.609375 C 15.125 -14.109375 14.125 -13.78125 12.90625 -13.625 L 12.90625 -13.1875 C 15.007812 -13.03125 16.582031 -12.398438 17.625 -11.296875 C 18.664062 -10.191406 19.1875 -8.703125 19.1875 -6.828125 C 19.1875 -5.378906 18.875 -4.148438 18.25 -3.140625 C 17.632812 -2.128906 16.707031 -1.351562 15.46875 -0.8125 C 14.238281 -0.269531 12.675781 0 10.78125 0 Z M 5.921875 -3 L 10.78125 -3 C 11.382812 -3 11.972656 -3.0625 12.546875 -3.1875 C 13.128906 -3.320312 13.648438 -3.539062 14.109375 -3.84375 C 14.578125 -4.144531 14.941406 -4.566406 15.203125 -5.109375 C 15.460938 -5.648438 15.59375 -6.328125 15.59375 -7.140625 C 15.59375 -7.859375 15.488281 -8.492188 15.28125 -9.046875 C 15.070312 -9.597656 14.769531 -10.054688 14.375 -10.421875 C 13.976562 -10.796875 13.515625 -11.097656 12.984375 -11.328125 C 12.460938 -11.566406 11.898438 -11.738281 11.296875 -11.84375 C 10.691406 -11.945312 10.054688 -12 9.390625 -12 L 5.921875 -12 Z M 5.921875 -14.6875 L 9.078125 -14.6875 C 9.816406 -14.6875 10.519531 -14.742188 11.1875 -14.859375 C 11.863281 -14.984375 12.457031 -15.203125 12.96875 -15.515625 C 13.476562 -15.828125 13.878906 -16.257812 14.171875 -16.8125 C 14.460938 -17.375 14.609375 -18.070312 14.609375 -18.90625 C 14.609375 -19.75 14.46875 -20.429688 14.1875 -20.953125 C 13.914062 -21.484375 13.539062 -21.90625 13.0625 -22.21875 C 12.59375 -22.539062 12.046875 -22.757812 11.421875 -22.875 C 10.804688 -23 10.171875 -23.0625 9.515625 -23.0625 L 5.921875 -23.0625 Z M 5.921875 -14.6875 "/></g></g></g><g fill="#333333" fill-opacity="1"><g transform="translate(68.512986, 29.49353)"><g><path d="M 2.21875 0 L 2.21875 -27.28125 L 5.765625 -27.28125 L 5.765625 0 Z M 2.21875 0 "/></g></g></g><g fill="#333333" fill-opacity="1"><g transform="translate(76.487032, 29.49353)"><g><path d="M 2.21875 0 L 2.21875 -20.609375 L 5.765625 -20.609375 L 5.765625 0 Z M 3.984375 -23.46875 C 3.222656 -23.46875 2.640625 -23.632812 2.234375 -23.96875 C 1.828125 -24.3125 1.625 -24.785156 1.625 -25.390625 C 1.625 -26.054688 1.828125 -26.550781 2.234375 -26.875 C 2.640625 -27.207031 3.222656 -27.375 3.984375 -27.375 C 4.773438 -27.375 5.367188 -27.207031 5.765625 -26.875 C 6.160156 -26.550781 6.359375 -26.054688 6.359375 -25.390625 C 6.359375 -24.765625 6.148438 -24.285156 5.734375 -23.953125 C 5.328125 -23.628906 4.742188 -23.46875 3.984375 -23.46875 Z M 3.984375 -23.46875 "/></g></g></g><g fill="#333333" fill-opacity="1"><g transform="translate(84.461078, 29.49353)"><g><path d="M 2.21875 0 L 2.21875 -12 L 2.171875 -20.609375 L 5.40625 -20.609375 L 5.015625 -13.421875 L 5.53125 -13.421875 C 5.789062 -15.316406 6.191406 -16.820312 6.734375 -17.9375 C 7.273438 -19.0625 7.945312 -19.875 8.75 -20.375 C 9.550781 -20.875 10.460938 -21.125 11.484375 -21.125 C 12.410156 -21.125 13.195312 -20.953125 13.84375 -20.609375 C 14.488281 -20.265625 15.015625 -19.789062 15.421875 -19.1875 C 15.828125 -18.582031 16.140625 -17.894531 16.359375 -17.125 C 16.585938 -16.363281 16.738281 -15.554688 16.8125 -14.703125 C 16.894531 -13.847656 16.9375 -13 16.9375 -12.15625 L 16.9375 0 L 13.390625 0 L 13.390625 -11.640625 C 13.390625 -12.253906 13.367188 -12.914062 13.328125 -13.625 C 13.285156 -14.332031 13.171875 -15.007812 12.984375 -15.65625 C 12.804688 -16.300781 12.507812 -16.832031 12.09375 -17.25 C 11.6875 -17.675781 11.117188 -17.890625 10.390625 -17.890625 C 9.441406 -17.890625 8.625 -17.476562 7.9375 -16.65625 C 7.25 -15.84375 6.71875 -14.757812 6.34375 -13.40625 C 5.976562 -12.050781 5.785156 -10.53125 5.765625 -8.84375 L 5.765625 0 Z M 2.21875 0 "/></g></g></g><g fill="#333333" fill-opacity="1"><g transform="translate(103.409326, 29.49353)"><g><path d="M 2.21875 0 L 2.21875 -27.28125 L 5.71875 -27.28125 L 5.71875 -11.921875 C 6.664062 -12.453125 7.519531 -13.082031 8.28125 -13.8125 C 9.050781 -14.550781 9.734375 -15.328125 10.328125 -16.140625 C 10.921875 -16.960938 11.40625 -17.765625 11.78125 -18.546875 C 12.164062 -19.335938 12.425781 -20.039062 12.5625 -20.65625 L 16.5 -20.65625 C 16.207031 -19.726562 15.804688 -18.785156 15.296875 -17.828125 C 14.785156 -16.867188 14.171875 -15.953125 13.453125 -15.078125 C 12.742188 -14.210938 11.9375 -13.4375 11.03125 -12.75 C 10.125 -12.070312 9.160156 -11.546875 8.140625 -11.171875 L 8.140625 -10.78125 C 9.242188 -10.832031 10.210938 -10.742188 11.046875 -10.515625 C 11.890625 -10.296875 12.609375 -9.925781 13.203125 -9.40625 C 13.796875 -8.894531 14.3125 -8.242188 14.75 -7.453125 C 15.1875 -6.671875 15.546875 -5.738281 15.828125 -4.65625 L 16.859375 0 L 13.0625 0 L 12.359375 -3.515625 C 12.046875 -4.753906 11.691406 -5.785156 11.296875 -6.609375 C 10.898438 -7.441406 10.359375 -8.070312 9.671875 -8.5 C 8.984375 -8.9375 8.035156 -9.15625 6.828125 -9.15625 L 5.71875 -9.15625 L 5.71875 0 Z M 2.21875 0 "/></g></g></g><g fill="#333333" fill-opacity="1"><g transform="translate(121.05487, 29.49353)"><g><path d="M 2.40625 0 L 2.40625 -26.0625 L 8.09375 -26.0625 L 14.375 -3.546875 L 14.5625 -3.546875 L 20.8125 -26.0625 L 26.34375 -26.0625 L 26.34375 0 L 22.9375 0 L 23.0625 -22.578125 L 22.859375 -22.578125 L 16.34375 0 L 12.390625 0 L 5.96875 -22.625 L 5.71875 -22.625 L 5.84375 0 Z M 2.40625 0 "/></g></g></g><g fill="#333333" fill-opacity="1"><g transform="translate(149.793031, 29.49353)"><g><path d="M 9.640625 0.46875 C 8.140625 0.46875 6.875 0.203125 5.84375 -0.328125 C 4.8125 -0.867188 3.972656 -1.613281 3.328125 -2.5625 C 2.691406 -3.507812 2.21875 -4.613281 1.90625 -5.875 C 1.601562 -7.144531 1.453125 -8.515625 1.453125 -9.984375 C 1.453125 -11.484375 1.601562 -12.90625 1.90625 -14.25 C 2.21875 -15.59375 2.679688 -16.773438 3.296875 -17.796875 C 3.910156 -18.828125 4.722656 -19.640625 5.734375 -20.234375 C 6.753906 -20.828125 7.960938 -21.125 9.359375 -21.125 C 10.648438 -21.125 11.769531 -20.863281 12.71875 -20.34375 C 13.664062 -19.832031 14.429688 -19.101562 15.015625 -18.15625 C 15.609375 -17.207031 16.03125 -16.0625 16.28125 -14.71875 C 16.53125 -13.382812 16.601562 -11.898438 16.5 -10.265625 L 3.828125 -10.03125 L 3.828125 -12.3125 L 14.0625 -12.515625 L 13.140625 -11.09375 C 13.253906 -12.59375 13.171875 -13.863281 12.890625 -14.90625 C 12.617188 -15.945312 12.1875 -16.734375 11.59375 -17.265625 C 11 -17.804688 10.253906 -18.078125 9.359375 -18.078125 C 8.378906 -18.078125 7.566406 -17.753906 6.921875 -17.109375 C 6.285156 -16.472656 5.800781 -15.5625 5.46875 -14.375 C 5.132812 -13.1875 4.96875 -11.789062 4.96875 -10.1875 C 4.96875 -7.65625 5.347656 -5.734375 6.109375 -4.421875 C 6.878906 -3.109375 8.054688 -2.453125 9.640625 -2.453125 C 10.316406 -2.453125 10.90625 -2.578125 11.40625 -2.828125 C 11.90625 -3.078125 12.304688 -3.414062 12.609375 -3.84375 C 12.910156 -4.28125 13.132812 -4.785156 13.28125 -5.359375 C 13.425781 -5.941406 13.5 -6.5625 13.5 -7.21875 L 16.78125 -6.828125 C 16.78125 -5.910156 16.640625 -5.015625 16.359375 -4.140625 C 16.085938 -3.273438 15.664062 -2.492188 15.09375 -1.796875 C 14.53125 -1.097656 13.796875 -0.546875 12.890625 -0.140625 C 11.984375 0.265625 10.898438 0.46875 9.640625 0.46875 Z M 9.640625 0.46875 "/></g></g></g><g fill="#333333" fill-opacity="1"><g transform="translate(167.793858, 29.49353)"><g><path d="M 8.71875 0.46875 C 7.382812 0.46875 6.226562 0.285156 5.25 -0.078125 C 4.28125 -0.441406 3.488281 -0.953125 2.875 -1.609375 C 2.269531 -2.273438 1.847656 -3.054688 1.609375 -3.953125 C 1.378906 -4.847656 1.316406 -5.804688 1.421875 -6.828125 L 4.625 -7.265625 C 4.519531 -6.265625 4.617188 -5.394531 4.921875 -4.65625 C 5.222656 -3.914062 5.703125 -3.347656 6.359375 -2.953125 C 7.015625 -2.566406 7.84375 -2.375 8.84375 -2.375 C 10.082031 -2.375 11.015625 -2.628906 11.640625 -3.140625 C 12.273438 -3.648438 12.59375 -4.34375 12.59375 -5.21875 C 12.59375 -5.925781 12.398438 -6.503906 12.015625 -6.953125 C 11.640625 -7.398438 11.09375 -7.785156 10.375 -8.109375 C 9.664062 -8.441406 8.851562 -8.765625 7.9375 -9.078125 C 7.125 -9.367188 6.332031 -9.671875 5.5625 -9.984375 C 4.800781 -10.304688 4.101562 -10.695312 3.46875 -11.15625 C 2.84375 -11.613281 2.347656 -12.175781 1.984375 -12.84375 C 1.628906 -13.519531 1.453125 -14.34375 1.453125 -15.3125 C 1.453125 -16.5 1.726562 -17.519531 2.28125 -18.375 C 2.84375 -19.226562 3.640625 -19.898438 4.671875 -20.390625 C 5.710938 -20.878906 6.957031 -21.125 8.40625 -21.125 C 9.90625 -21.125 11.1875 -20.851562 12.25 -20.3125 C 13.320312 -19.769531 14.132812 -18.976562 14.6875 -17.9375 C 15.238281 -16.90625 15.460938 -15.640625 15.359375 -14.140625 L 12.203125 -13.65625 C 12.273438 -14.550781 12.164062 -15.34375 11.875 -16.03125 C 11.59375 -16.71875 11.15625 -17.253906 10.5625 -17.640625 C 9.96875 -18.035156 9.222656 -18.234375 8.328125 -18.234375 C 7.273438 -18.234375 6.429688 -17.984375 5.796875 -17.484375 C 5.171875 -16.984375 4.859375 -16.316406 4.859375 -15.484375 C 4.859375 -14.765625 5.0625 -14.1875 5.46875 -13.75 C 5.875 -13.320312 6.421875 -12.957031 7.109375 -12.65625 C 7.796875 -12.351562 8.570312 -12.046875 9.4375 -11.734375 C 10.28125 -11.441406 11.09375 -11.128906 11.875 -10.796875 C 12.664062 -10.472656 13.367188 -10.078125 13.984375 -9.609375 C 14.609375 -9.148438 15.101562 -8.570312 15.46875 -7.875 C 15.84375 -7.175781 16.03125 -6.328125 16.03125 -5.328125 C 16.03125 -4.140625 15.742188 -3.113281 15.171875 -2.25 C 14.609375 -1.382812 13.785156 -0.710938 12.703125 -0.234375 C 11.628906 0.234375 10.300781 0.46875 8.71875 0.46875 Z M 8.71875 0.46875 "/></g></g></g><g fill="#333333" fill-opacity="1"><g transform="translate(184.965706, 29.49353)"><g><path d="M 8.71875 0.46875 C 7.382812 0.46875 6.226562 0.285156 5.25 -0.078125 C 4.28125 -0.441406 3.488281 -0.953125 2.875 -1.609375 C 2.269531 -2.273438 1.847656 -3.054688 1.609375 -3.953125 C 1.378906 -4.847656 1.316406 -5.804688 1.421875 -6.828125 L 4.625 -7.265625 C 4.519531 -6.265625 4.617188 -5.394531 4.921875 -4.65625 C 5.222656 -3.914062 5.703125 -3.347656 6.359375 -2.953125 C 7.015625 -2.566406 7.84375 -2.375 8.84375 -2.375 C 10.082031 -2.375 11.015625 -2.628906 11.640625 -3.140625 C 12.273438 -3.648438 12.59375 -4.34375 12.59375 -5.21875 C 12.59375 -5.925781 12.398438 -6.503906 12.015625 -6.953125 C 11.640625 -7.398438 11.09375 -7.785156 10.375 -8.109375 C 9.664062 -8.441406 8.851562 -8.765625 7.9375 -9.078125 C 7.125 -9.367188 6.332031 -9.671875 5.5625 -9.984375 C 4.800781 -10.304688 4.101562 -10.695312 3.46875 -11.15625 C 2.84375 -11.613281 2.347656 -12.175781 1.984375 -12.84375 C 1.628906 -13.519531 1.453125 -14.34375 1.453125 -15.3125 C 1.453125 -16.5 1.726562 -17.519531 2.28125 -18.375 C 2.84375 -19.226562 3.640625 -19.898438 4.671875 -20.390625 C 5.710938 -20.878906 6.957031 -21.125 8.40625 -21.125 C 9.90625 -21.125 11.1875 -20.851562 12.25 -20.3125 C 13.320312 -19.769531 14.132812 -18.976562 14.6875 -17.9375 C 15.238281 -16.90625 15.460938 -15.640625 15.359375 -14.140625 L 12.203125 -13.65625 C 12.273438 -14.550781 12.164062 -15.34375 11.875 -16.03125 C 11.59375 -16.71875 11.15625 -17.253906 10.5625 -17.640625 C 9.96875 -18.035156 9.222656 -18.234375 8.328125 -18.234375 C 7.273438 -18.234375 6.429688 -17.984375 5.796875 -17.484375 C 5.171875 -16.984375 4.859375 -16.316406 4.859375 -15.484375 C 4.859375 -14.765625 5.0625 -14.1875 5.46875 -13.75 C 5.875 -13.320312 6.421875 -12.957031 7.109375 -12.65625 C 7.796875 -12.351562 8.570312 -12.046875 9.4375 -11.734375 C 10.28125 -11.441406 11.09375 -11.128906 11.875 -10.796875 C 12.664062 -10.472656 13.367188 -10.078125 13.984375 -9.609375 C 14.609375 -9.148438 15.101562 -8.570312 15.46875 -7.875 C 15.84375 -7.175781 16.03125 -6.328125 16.03125 -5.328125 C 16.03125 -4.140625 15.742188 -3.113281 15.171875 -2.25 C 14.609375 -1.382812 13.785156 -0.710938 12.703125 -0.234375 C 11.628906 0.234375 10.300781 0.46875 8.71875 0.46875 Z M 8.71875 0.46875 "/></g></g></g><g fill="#333333" fill-opacity="1"><g transform="translate(202.137554, 29.49353)"><g><path d="M 6.234375 0.46875 C 5.367188 0.46875 4.550781 0.28125 3.78125 -0.09375 C 3.019531 -0.476562 2.398438 -1.066406 1.921875 -1.859375 C 1.453125 -2.648438 1.21875 -3.675781 1.21875 -4.9375 C 1.21875 -6.070312 1.421875 -7.003906 1.828125 -7.734375 C 2.242188 -8.472656 2.789062 -9.09375 3.46875 -9.59375 C 4.15625 -10.09375 4.925781 -10.5 5.78125 -10.8125 C 6.632812 -11.132812 7.523438 -11.425781 8.453125 -11.6875 C 9.421875 -11.976562 10.179688 -12.226562 10.734375 -12.4375 C 11.285156 -12.644531 11.679688 -12.90625 11.921875 -13.21875 C 12.160156 -13.539062 12.28125 -13.988281 12.28125 -14.5625 C 12.28125 -15.226562 12.160156 -15.820312 11.921875 -16.34375 C 11.679688 -16.875 11.316406 -17.300781 10.828125 -17.625 C 10.347656 -17.957031 9.738281 -18.125 9 -18.125 C 8.425781 -18.125 7.84375 -17.988281 7.25 -17.71875 C 6.65625 -17.457031 6.160156 -16.984375 5.765625 -16.296875 C 5.367188 -15.617188 5.171875 -14.648438 5.171875 -13.390625 L 1.859375 -13.984375 C 1.878906 -15.265625 2.085938 -16.359375 2.484375 -17.265625 C 2.878906 -18.179688 3.40625 -18.921875 4.0625 -19.484375 C 4.71875 -20.046875 5.476562 -20.457031 6.34375 -20.71875 C 7.21875 -20.988281 8.128906 -21.125 9.078125 -21.125 C 10.285156 -21.125 11.316406 -20.9375 12.171875 -20.5625 C 13.035156 -20.195312 13.726562 -19.671875 14.25 -18.984375 C 14.78125 -18.304688 15.171875 -17.484375 15.421875 -16.515625 C 15.671875 -15.554688 15.796875 -14.488281 15.796875 -13.3125 L 15.796875 -8.5625 C 15.796875 -7.695312 15.8125 -6.769531 15.84375 -5.78125 C 15.882812 -4.789062 15.925781 -3.800781 15.96875 -2.8125 C 16.007812 -1.832031 16.054688 -0.894531 16.109375 0 L 12.828125 0 C 12.804688 -1 12.800781 -1.984375 12.8125 -2.953125 C 12.820312 -3.929688 12.828125 -4.9375 12.828125 -5.96875 L 12.390625 -5.96875 C 12.160156 -4.644531 11.757812 -3.492188 11.1875 -2.515625 C 10.625 -1.546875 9.929688 -0.804688 9.109375 -0.296875 C 8.296875 0.210938 7.335938 0.46875 6.234375 0.46875 Z M 7.34375 -2.53125 C 7.894531 -2.53125 8.425781 -2.671875 8.9375 -2.953125 C 9.457031 -3.242188 9.929688 -3.660156 10.359375 -4.203125 C 10.796875 -4.742188 11.1875 -5.378906 11.53125 -6.109375 C 11.875 -6.847656 12.132812 -7.664062 12.3125 -8.5625 L 12.3125 -11.453125 L 13.421875 -11.765625 C 13.128906 -11.367188 12.71875 -11.039062 12.1875 -10.78125 C 11.664062 -10.519531 11.078125 -10.289062 10.421875 -10.09375 C 9.765625 -9.894531 9.097656 -9.679688 8.421875 -9.453125 C 7.753906 -9.234375 7.144531 -8.957031 6.59375 -8.625 C 6.039062 -8.300781 5.59375 -7.878906 5.25 -7.359375 C 4.90625 -6.847656 4.734375 -6.1875 4.734375 -5.375 C 4.734375 -4.425781 4.976562 -3.710938 5.46875 -3.234375 C 5.957031 -2.765625 6.582031 -2.53125 7.34375 -2.53125 Z M 7.34375 -2.53125 "/></g></g></g><g fill="#333333" fill-opacity="1"><g transform="translate(219.980487, 29.49353)"><g><path d="M 8.640625 6.28125 C 6.878906 6.28125 5.4375 6.101562 4.3125 5.75 C 3.195312 5.394531 2.367188 4.882812 1.828125 4.21875 C 1.296875 3.5625 1.03125 2.785156 1.03125 1.890625 C 1.03125 0.734375 1.457031 -0.222656 2.3125 -0.984375 C 3.164062 -1.742188 4.394531 -2.269531 6 -2.5625 L 6 -3.078125 C 4.789062 -3.054688 3.867188 -3.207031 3.234375 -3.53125 C 2.609375 -3.863281 2.296875 -4.367188 2.296875 -5.046875 C 2.296875 -5.734375 2.597656 -6.300781 3.203125 -6.75 C 3.804688 -7.195312 4.753906 -7.578125 6.046875 -7.890625 L 6.046875 -8.453125 C 4.617188 -8.609375 3.535156 -9.1875 2.796875 -10.1875 C 2.066406 -11.1875 1.703125 -12.425781 1.703125 -13.90625 C 1.703125 -15.238281 2.003906 -16.410156 2.609375 -17.421875 C 3.210938 -18.441406 4.085938 -19.234375 5.234375 -19.796875 C 6.378906 -20.367188 7.738281 -20.65625 9.3125 -20.65625 L 17.578125 -20.65625 L 17.578125 -17.65625 L 11.84375 -18.5625 L 11.84375 -18 C 13.320312 -17.71875 14.398438 -17.15625 15.078125 -16.3125 C 15.765625 -15.46875 16.109375 -14.425781 16.109375 -13.1875 C 16.109375 -12.082031 15.832031 -11.082031 15.28125 -10.1875 C 14.726562 -9.289062 13.925781 -8.582031 12.875 -8.0625 C 11.820312 -7.550781 10.546875 -7.296875 9.046875 -7.296875 C 8.722656 -7.296875 8.390625 -7.3125 8.046875 -7.34375 C 7.710938 -7.375 7.332031 -7.441406 6.90625 -7.546875 C 6.25 -7.148438 5.773438 -6.789062 5.484375 -6.46875 C 5.191406 -6.15625 5.046875 -5.878906 5.046875 -5.640625 C 5.046875 -5.410156 5.171875 -5.234375 5.421875 -5.109375 C 5.671875 -4.992188 6 -4.914062 6.40625 -4.875 C 6.820312 -4.832031 7.265625 -4.8125 7.734375 -4.8125 L 11.296875 -4.8125 C 11.691406 -4.8125 12.25 -4.78125 12.96875 -4.71875 C 13.695312 -4.65625 14.4375 -4.472656 15.1875 -4.171875 C 15.9375 -3.867188 16.570312 -3.375 17.09375 -2.6875 C 17.625 -2 17.890625 -1.035156 17.890625 0.203125 C 17.890625 1.597656 17.503906 2.738281 16.734375 3.625 C 15.972656 4.519531 14.898438 5.1875 13.515625 5.625 C 12.140625 6.0625 10.515625 6.28125 8.640625 6.28125 Z M 8.6875 3.203125 C 10.082031 3.203125 11.210938 3.078125 12.078125 2.828125 C 12.953125 2.578125 13.578125 2.21875 13.953125 1.75 C 14.335938 1.289062 14.53125 0.734375 14.53125 0.078125 C 14.53125 -0.523438 14.390625 -1 14.109375 -1.34375 C 13.835938 -1.6875 13.484375 -1.929688 13.046875 -2.078125 C 12.609375 -2.222656 12.160156 -2.3125 11.703125 -2.34375 C 11.242188 -2.382812 10.832031 -2.40625 10.46875 -2.40625 L 7.34375 -2.40625 C 6.1875 -1.957031 5.367188 -1.476562 4.890625 -0.96875 C 4.421875 -0.457031 4.1875 0.128906 4.1875 0.796875 C 4.1875 1.453125 4.382812 1.945312 4.78125 2.28125 C 5.175781 2.625 5.710938 2.863281 6.390625 3 C 7.078125 3.132812 7.84375 3.203125 8.6875 3.203125 Z M 9.046875 -9.71875 C 10.222656 -9.71875 11.117188 -10.078125 11.734375 -10.796875 C 12.359375 -11.523438 12.671875 -12.503906 12.671875 -13.734375 C 12.671875 -15.003906 12.347656 -16.023438 11.703125 -16.796875 C 11.054688 -17.578125 10.144531 -17.96875 8.96875 -17.96875 C 7.78125 -17.96875 6.847656 -17.570312 6.171875 -16.78125 C 5.503906 -15.988281 5.171875 -15 5.171875 -13.8125 C 5.171875 -13 5.328125 -12.28125 5.640625 -11.65625 C 5.960938 -11.039062 6.410156 -10.5625 6.984375 -10.21875 C 7.566406 -9.882812 8.253906 -9.71875 9.046875 -9.71875 Z M 9.046875 -9.71875 "/></g></g></g><g fill="#333333" fill-opacity="1"><g transform="translate(238.770827, 29.49353)"><g><path d="M 9.640625 0.46875 C 8.140625 0.46875 6.875 0.203125 5.84375 -0.328125 C 4.8125 -0.867188 3.972656 -1.613281 3.328125 -2.5625 C 2.691406 -3.507812 2.21875 -4.613281 1.90625 -5.875 C 1.601562 -7.144531 1.453125 -8.515625 1.453125 -9.984375 C 1.453125 -11.484375 1.601562 -12.90625 1.90625 -14.25 C 2.21875 -15.59375 2.679688 -16.773438 3.296875 -17.796875 C 3.910156 -18.828125 4.722656 -19.640625 5.734375 -20.234375 C 6.753906 -20.828125 7.960938 -21.125 9.359375 -21.125 C 10.648438 -21.125 11.769531 -20.863281 12.71875 -20.34375 C 13.664062 -19.832031 14.429688 -19.101562 15.015625 -18.15625 C 15.609375 -17.207031 16.03125 -16.0625 16.28125 -14.71875 C 16.53125 -13.382812 16.601562 -11.898438 16.5 -10.265625 L 3.828125 -10.03125 L 3.828125 -12.3125 L 14.0625 -12.515625 L 13.140625 -11.09375 C 13.253906 -12.59375 13.171875 -13.863281 12.890625 -14.90625 C 12.617188 -15.945312 12.1875 -16.734375 11.59375 -17.265625 C 11 -17.804688 10.253906 -18.078125 9.359375 -18.078125 C 8.378906 -18.078125 7.566406 -17.753906 6.921875 -17.109375 C 6.285156 -16.472656 5.800781 -15.5625 5.46875 -14.375 C 5.132812 -13.1875 4.96875 -11.789062 4.96875 -10.1875 C 4.96875 -7.65625 5.347656 -5.734375 6.109375 -4.421875 C 6.878906 -3.109375 8.054688 -2.453125 9.640625 -2.453125 C 10.316406 -2.453125 10.90625 -2.578125 11.40625 -2.828125 C 11.90625 -3.078125 12.304688 -3.414062 12.609375 -3.84375 C 12.910156 -4.28125 13.132812 -4.785156 13.28125 -5.359375 C 13.425781 -5.941406 13.5 -6.5625 13.5 -7.21875 L 16.78125 -6.828125 C 16.78125 -5.910156 16.640625 -5.015625 16.359375 -4.140625 C 16.085938 -3.273438 15.664062 -2.492188 15.09375 -1.796875 C 14.53125 -1.097656 13.796875 -0.546875 12.890625 -0.140625 C 11.984375 0.265625 10.898438 0.46875 9.640625 0.46875 Z M 9.640625 0.46875 "/></g></g></g><g clip-path="url(#e59a1b1941)"><path fill="#333333" d="M 35.265625 30.953125 C 36.363281 29.777344 36.996094 28.175781 36.996094 26.570312 C 36.996094 24.910156 36.335938 23.332031 35.136719 22.132812 L 29.414062 16.410156 L 35.300781 10.519531 C 36.121094 9.703125 36.652344 8.683594 36.84375 7.578125 C 37.023438 6.554688 36.902344 5.492188 36.496094 4.515625 C 36.089844 3.535156 35.425781 2.707031 34.574219 2.109375 C 33.65625 1.460938 32.558594 1.128906 31.402344 1.128906 L 11.785156 1.128906 C 10.871094 1.101562 9.953125 1.246094 9.085938 1.605469 C 7.964844 2.070312 7.007812 2.828125 6.320312 3.804688 C 5.578125 4.855469 5.1875 6.109375 5.1875 7.4375 L 5.179688 26.601562 L 5.1875 26.605469 C 5.1875 28.289062 5.84375 29.882812 7.035156 31.074219 C 8.226562 32.269531 9.8125 32.9375 11.5 32.9375 L 30.667969 32.9375 C 32.445312 32.9375 34.078125 32.226562 35.265625 30.953125 Z M 8.070312 7.433594 C 8.070312 5.742188 9.160156 4.6875 10.183594 4.261719 C 10.625 4.078125 11.132812 3.972656 11.714844 4 L 11.714844 4.007812 L 31.402344 4.007812 C 32.5 4.007812 33.410156 4.609375 33.832031 5.625 C 34.253906 6.640625 34.039062 7.707031 33.261719 8.484375 L 22.53125 19.21875 C 22.035156 19.714844 21.375 19.988281 20.671875 19.988281 C 19.972656 19.988281 19.3125 19.714844 18.816406 19.21875 L 8.070312 8.472656 Z M 11.5 30.054688 C 10.582031 30.054688 9.710938 29.6875 9.0625 29.039062 C 8.414062 28.390625 8.050781 27.515625 8.050781 26.601562 C 8.050781 26.601562 8.050781 26.621094 8.050781 26.621094 L 8.0625 26.621094 L 8.0625 26.609375 L 8.066406 12.558594 L 16.773438 21.261719 C 17.816406 22.300781 19.199219 22.875 20.671875 22.875 C 22.144531 22.875 23.53125 22.300781 24.570312 21.257812 L 27.375 18.453125 L 33.09375 24.171875 C 33.933594 25.011719 34.109375 25.949219 34.109375 26.574219 C 34.109375 28.28125 32.820312 30.058594 30.667969 30.058594 L 11.5 30.058594 Z M 11.5 30.054688 " fill-opacity="1" fill-rule="nonzero"/></g></svg>