<svg xmlns="http://www.w3.org/2000/svg" xmlns:xlink="http://www.w3.org/1999/xlink" width="500" zoomAndPan="magnify" viewBox="0 0 375 374.999991" height="500" preserveAspectRatio="xMidYMid meet" version="1.0"><defs><clipPath id="2952a0c176"><path d="M 146 255 L 229 255 L 229 337.496094 L 146 337.496094 Z M 146 255 " clip-rule="nonzero"/></clipPath></defs><path fill="#2f3be4" d="M 33.3125 294.625 C 10.304688 277.269531 5.695312 244.25 23.015625 221.238281 L 145.730469 58.410156 C 163.085938 35.402344 196.105469 30.757812 219.113281 48.113281 C 242.121094 65.46875 246.769531 98.488281 229.410156 121.496094 L 106.695312 284.289062 C 89.375 307.335938 56.355469 311.945312 33.3125 294.625 Z M 33.3125 294.625 " fill-opacity="0.8" fill-rule="evenodd"/><path fill="#1e2020" d="M 341.683594 294.625 C 364.695312 277.269531 369.304688 244.25 351.984375 221.238281 L 229.269531 58.410156 C 211.910156 35.402344 178.894531 30.757812 155.882812 48.113281 C 132.875 65.46875 128.230469 98.488281 145.585938 121.496094 L 268.300781 284.289062 C 285.621094 307.335938 318.640625 311.945312 341.683594 294.625 Z M 341.683594 294.625 " fill-opacity="0.8" fill-rule="evenodd"/><g clip-path="url(#2952a0c176)"><path fill="#1e2020" d="M 187.5 255.914062 C 188.832031 255.914062 190.164062 255.980469 191.492188 256.113281 C 192.824219 256.242188 194.140625 256.4375 195.449219 256.699219 C 196.761719 256.960938 198.054688 257.28125 199.332031 257.671875 C 200.609375 258.058594 201.863281 258.507812 203.097656 259.019531 C 204.332031 259.527344 205.535156 260.097656 206.714844 260.730469 C 207.890625 261.359375 209.035156 262.042969 210.144531 262.785156 C 211.253906 263.527344 212.324219 264.320312 213.355469 265.167969 C 214.390625 266.015625 215.378906 266.910156 216.320312 267.855469 C 217.265625 268.796875 218.160156 269.785156 219.007812 270.816406 C 219.855469 271.851562 220.648438 272.921875 221.390625 274.03125 C 222.132812 275.140625 222.816406 276.285156 223.445312 277.460938 C 224.074219 278.640625 224.644531 279.84375 225.15625 281.078125 C 225.667969 282.3125 226.117188 283.566406 226.503906 284.84375 C 226.890625 286.121094 227.214844 287.414062 227.476562 288.722656 C 227.738281 290.035156 227.933594 291.351562 228.0625 292.679688 C 228.195312 294.011719 228.257812 295.339844 228.257812 296.675781 C 228.257812 298.011719 228.195312 299.34375 228.0625 300.671875 C 227.933594 302 227.738281 303.320312 227.476562 304.628906 C 227.214844 305.9375 226.890625 307.230469 226.503906 308.507812 C 226.117188 309.785156 225.667969 311.042969 225.15625 312.273438 C 224.644531 313.507812 224.074219 314.714844 223.445312 315.890625 C 222.816406 317.070312 222.132812 318.210938 221.390625 319.324219 C 220.648438 320.433594 219.855469 321.503906 219.007812 322.535156 C 218.160156 323.566406 217.265625 324.554688 216.320312 325.5 C 215.378906 326.441406 214.390625 327.339844 213.355469 328.183594 C 212.324219 329.03125 211.253906 329.828125 210.144531 330.566406 C 209.035156 331.308594 207.890625 331.996094 206.714844 332.625 C 205.535156 333.253906 204.332031 333.824219 203.097656 334.335938 C 201.863281 334.847656 200.609375 335.296875 199.332031 335.683594 C 198.054688 336.070312 196.761719 336.394531 195.449219 336.65625 C 194.140625 336.914062 192.824219 337.109375 191.492188 337.242188 C 190.164062 337.371094 188.832031 337.4375 187.5 337.4375 C 186.164062 337.4375 184.832031 337.371094 183.503906 337.242188 C 182.175781 337.109375 180.855469 336.914062 179.546875 336.65625 C 178.238281 336.394531 176.945312 336.070312 175.667969 335.683594 C 174.390625 335.296875 173.132812 334.847656 171.898438 334.335938 C 170.667969 333.824219 169.460938 333.253906 168.285156 332.625 C 167.105469 331.996094 165.960938 331.308594 164.851562 330.566406 C 163.742188 329.828125 162.671875 329.03125 161.640625 328.183594 C 160.609375 327.339844 159.621094 326.441406 158.675781 325.5 C 157.730469 324.554688 156.835938 323.566406 155.988281 322.535156 C 155.144531 321.503906 154.347656 320.433594 153.605469 319.324219 C 152.863281 318.210938 152.179688 317.070312 151.550781 315.890625 C 150.921875 314.714844 150.351562 313.507812 149.839844 312.273438 C 149.328125 311.042969 148.878906 309.785156 148.492188 308.507812 C 148.105469 307.230469 147.78125 305.9375 147.519531 304.628906 C 147.261719 303.320312 147.066406 302 146.933594 300.671875 C 146.804688 299.34375 146.738281 298.011719 146.738281 296.675781 C 146.738281 295.339844 146.804688 294.011719 146.933594 292.679688 C 147.066406 291.351562 147.261719 290.035156 147.519531 288.722656 C 147.78125 287.414062 148.105469 286.121094 148.492188 284.84375 C 148.878906 283.566406 149.328125 282.3125 149.839844 281.078125 C 150.351562 279.84375 150.921875 278.640625 151.550781 277.460938 C 152.179688 276.285156 152.863281 275.140625 153.605469 274.03125 C 154.347656 272.921875 155.144531 271.851562 155.988281 270.816406 C 156.835938 269.785156 157.730469 268.796875 158.675781 267.855469 C 159.621094 266.910156 160.609375 266.015625 161.640625 265.167969 C 162.671875 264.320312 163.742188 263.527344 164.851562 262.785156 C 165.960938 262.042969 167.105469 261.359375 168.285156 260.730469 C 169.460938 260.097656 170.667969 259.527344 171.898438 259.019531 C 173.132812 258.507812 174.390625 258.058594 175.667969 257.671875 C 176.945312 257.28125 178.238281 256.960938 179.546875 256.699219 C 180.855469 256.4375 182.175781 256.242188 183.503906 256.113281 C 184.832031 255.980469 186.164062 255.914062 187.5 255.914062 Z M 187.5 255.914062 " fill-opacity="1" fill-rule="nonzero"/></g></svg>