<svg xmlns="http://www.w3.org/2000/svg" xmlns:xlink="http://www.w3.org/1999/xlink" width="500" zoomAndPan="magnify" viewBox="0 0 375 374.999991" height="500" preserveAspectRatio="xMidYMid meet" version="1.0"><rect x="-37.5" width="450" fill="#ffffff" y="-37.499999" height="449.999989" fill-opacity="1"/><rect x="-37.5" width="450" fill="#ffffff" y="-37.499999" height="449.999989" fill-opacity="1"/><path fill="#1e2020" d="M 354.367188 351.589844 C 367.308594 337.730469 374.738281 318.875 374.738281 299.945312 C 374.738281 280.40625 366.957031 261.835938 352.828125 247.707031 L 285.449219 180.3125 L 354.785156 110.925781 C 364.417969 101.292969 370.695312 89.304688 372.949219 76.285156 C 375.039062 64.191406 373.617188 51.710938 368.84375 40.175781 C 364.066406 28.640625 356.238281 18.898438 346.207031 11.828125 C 335.398438 4.21875 322.484375 0.28125 308.867188 0.28125 L 77.789062 0.28125 C 67.019531 -0.0234375 56.199219 1.691406 46.007812 5.910156 C 32.78125 11.390625 21.5 20.320312 13.402344 31.8125 C 4.679688 44.183594 0.0625 58.960938 0.0625 74.585938 L 0 300.3125 L 0.078125 300.359375 C 0.0976562 320.214844 7.789062 338.992188 21.835938 353.035156 C 35.894531 367.09375 54.542969 374.945312 74.417969 374.945312 L 300.191406 374.945312 C 321.125 374.945312 340.367188 366.582031 354.367188 351.589844 Z M 34.035156 74.578125 C 34.042969 54.648438 46.878906 42.210938 58.945312 37.210938 C 64.144531 35.054688 70.121094 33.777344 76.964844 34.136719 L 76.964844 34.203125 L 308.859375 34.203125 C 321.804688 34.203125 332.5 41.277344 337.460938 53.242188 C 342.421875 65.207031 339.914062 77.789062 330.757812 86.949219 L 204.378906 213.386719 C 198.53125 219.234375 190.75 222.453125 182.484375 222.453125 C 174.210938 222.453125 166.4375 219.226562 160.589844 213.378906 L 34.027344 86.820312 Z M 74.417969 341.023438 C 63.609375 341.023438 53.371094 336.675781 45.726562 329.042969 C 38.089844 321.40625 33.800781 311.109375 33.800781 300.3125 C 33.800781 300.3125 33.800781 300.550781 33.800781 300.550781 L 33.9375 300.550781 L 33.960938 300.414062 L 34.007812 134.902344 L 136.558594 237.421875 C 148.824219 249.6875 165.128906 256.421875 182.476562 256.421875 C 199.824219 256.421875 216.125 249.65625 228.386719 237.386719 L 261.414062 204.335938 L 328.785156 271.710938 C 338.675781 281.597656 340.75 292.628906 340.75 300.03125 C 340.75 320.121094 325.574219 341.03125 300.183594 341.03125 L 74.417969 341.03125 Z M 74.417969 341.023438 " fill-opacity="1" fill-rule="nonzero"/></svg>