<?xml version="1.0" standalone="no"?>
<!DOCTYPE svg PUBLIC "-//W3C//DTD SVG 20010904//EN"
 "http://www.w3.org/TR/2001/REC-SVG-20010904/DTD/svg10.dtd">
<svg version="1.0" xmlns="http://www.w3.org/2000/svg"
 width="700.000000pt" height="700.000000pt" viewBox="0 0 700.000000 700.000000"
 preserveAspectRatio="xMidYMid meet">
<metadata>
Created by potrace 1.14, written by Peter Selinger 2001-2017
</metadata>
<g transform="translate(0.000000,700.000000) scale(0.100000,-0.100000)"
fill="#000000" stroke="none">
<path d="M3305 6280 c-251 -53 -459 -190 -610 -400 -22 -30 -78 -106 -125
-169 -47 -62 -89 -120 -95 -129 -14 -22 -36 -50 -67 -87 -16 -18 -28 -37 -28
-43 0 -6 -3 -12 -8 -14 -4 -1 -33 -37 -64 -78 -32 -41 -61 -79 -65 -85 -27
-34 -163 -215 -187 -249 -16 -23 -38 -53 -50 -68 -11 -14 -31 -39 -43 -55 -11
-15 -48 -64 -82 -108 -33 -44 -64 -85 -69 -90 -5 -6 -17 -24 -28 -40 -10 -17
-27 -39 -37 -50 -11 -11 -26 -31 -36 -45 -9 -14 -24 -34 -33 -45 -10 -11 -18
-24 -20 -30 -1 -5 -14 -22 -28 -36 -14 -14 -54 -66 -90 -115 -36 -49 -70 -96
-77 -104 -7 -8 -78 -103 -158 -210 -194 -259 -188 -251 -202 -266 -7 -7 -13
-17 -13 -23 0 -6 -4 -11 -10 -11 -5 0 -10 -6 -10 -14 0 -8 -4 -16 -9 -18 -9
-3 -81 -95 -81 -103 0 -3 -15 -22 -33 -41 -17 -20 -36 -44 -42 -53 -5 -10 -27
-38 -47 -63 -21 -25 -38 -48 -38 -52 0 -3 -7 -14 -16 -23 -8 -10 -44 -56 -80
-103 -35 -47 -67 -89 -71 -95 -5 -5 -35 -46 -68 -90 -33 -44 -63 -81 -67 -83
-5 -2 -8 -10 -8 -17 0 -7 -3 -15 -7 -17 -23 -10 -171 -228 -155 -228 4 0 2 -4
-3 -8 -13 -8 -67 -132 -58 -132 3 0 1 -6 -4 -12 -38 -49 -65 -408 -32 -428 6
-4 7 -9 2 -11 -10 -4 16 -131 29 -145 5 -4 8 -17 8 -28 0 -54 120 -259 202
-346 98 -104 282 -231 309 -214 7 4 9 3 6 -3 -9 -14 106 -56 209 -77 93 -19
217 -25 289 -14 27 4 66 9 85 11 60 6 181 48 174 59 -5 7 -2 8 5 3 12 -7 40 2
81 26 8 5 31 16 50 26 19 9 37 20 40 23 3 4 12 11 21 16 71 39 176 146 277
281 42 57 89 118 104 136 15 18 28 37 28 43 0 7 7 14 15 18 8 3 15 12 15 21 0
8 4 15 8 15 5 0 24 21 42 47 18 27 40 55 47 63 27 30 93 120 93 125 0 3 13 20
30 38 16 18 30 35 30 38 0 4 13 21 29 40 16 18 28 36 25 40 -2 4 3 10 12 13 8
3 12 10 9 16 -3 5 1 10 9 10 8 0 17 8 20 18 3 9 16 29 30 43 27 29 51 70 48
81 -1 5 2 7 7 5 8 -2 65 69 139 172 9 13 22 28 27 35 6 6 28 36 50 66 22 30
45 62 52 70 7 8 53 69 102 135 50 66 94 125 99 130 4 6 38 51 75 100 36 50 73
97 81 105 7 8 24 31 37 50 24 35 71 99 99 133 33 41 46 58 70 91 14 20 27 35
30 35 5 0 33 -37 166 -214 25 -33 52 -68 60 -78 8 -10 32 -42 52 -70 20 -29
42 -58 49 -65 7 -7 38 -49 69 -92 32 -44 60 -77 64 -75 4 2 7 -1 7 -8 0 -7 51
-79 113 -162 62 -82 168 -222 234 -310 66 -88 126 -166 133 -173 7 -7 13 -16
13 -20 0 -4 13 -21 28 -38 15 -18 34 -42 42 -54 21 -31 83 -113 95 -126 6 -6
26 -34 45 -62 19 -28 41 -52 48 -52 7 0 11 -4 7 -9 -3 -5 1 -15 7 -23 7 -7 51
-64 97 -125 46 -62 88 -110 94 -106 6 3 7 2 4 -4 -8 -12 39 -83 55 -83 6 0 8
-3 5 -6 -12 -13 124 -162 204 -224 33 -26 139 -95 151 -99 4 -1 33 -13 64 -27
110 -49 265 -80 389 -78 199 2 405 68 560 180 92 66 204 179 227 229 6 14 14
25 17 25 4 0 20 26 36 57 17 32 34 61 39 64 5 4 6 14 3 24 -4 9 -3 14 1 11 12
-7 45 91 36 105 -4 7 -3 9 3 6 11 -7 37 89 28 103 -3 5 -2 11 3 14 24 15 16
356 -9 364 -5 2 -7 8 -3 13 7 12 -30 125 -64 199 -25 52 -113 192 -136 216 -6
6 -31 38 -56 72 -24 34 -48 62 -52 62 -5 0 -8 4 -8 10 0 8 -63 96 -118 165 -4
6 -54 72 -111 148 -57 75 -108 137 -114 137 -6 0 -8 3 -4 6 5 5 -103 155 -158
221 -5 6 -21 28 -35 49 -14 20 -35 47 -47 61 -13 13 -23 26 -23 29 0 6 -73
102 -104 137 -14 15 -23 27 -19 27 3 0 0 7 -7 15 -7 8 -17 12 -23 8 -5 -3 -7
-1 -4 4 6 10 -58 104 -75 111 -4 2 -8 10 -8 17 0 7 -3 15 -7 17 -5 2 -42 48
-83 103 -41 55 -78 105 -83 110 -4 6 -33 44 -63 85 -31 41 -60 77 -65 78 -5 2
-9 10 -9 18 0 8 -7 17 -15 20 -8 4 -15 11 -15 18 0 6 -12 25 -26 41 -15 17
-33 40 -41 52 -8 13 -20 20 -26 16 -5 -3 -7 -1 -4 4 6 10 -28 64 -45 71 -5 2
-8 9 -8 16 0 18 -35 48 -45 39 -4 -5 -5 -3 -2 3 7 13 -68 124 -84 124 -6 0 -8
4 -5 8 3 5 -3 18 -12 28 -10 10 -42 52 -71 91 -29 40 -58 70 -64 66 -6 -3 -7
-1 -3 5 4 7 2 17 -4 24 -6 7 -36 47 -66 88 -31 41 -63 84 -72 95 -10 11 -35
45 -57 75 -22 30 -44 60 -50 66 -5 7 -19 24 -30 39 -11 15 -56 76 -100 135
-44 59 -100 135 -124 169 -127 177 -337 318 -554 372 -119 30 -314 34 -432 9z"/>
<path d="M3440 2222 c-240 -25 -452 -151 -578 -346 -282 -435 -56 -1017 449
-1152 84 -22 245 -27 336 -9 347 67 605 373 612 727 6 277 -122 516 -354 663
-135 85 -321 132 -465 117z"/>
</g>
</svg>
